<svg id="Layer_1" data-name="Layer 1" xmlns="http://www.w3.org/2000/svg" viewBox="0 0 331.5 94.92"><defs><style>.cls-1{fill:#fff;}</style></defs><title>Brain Health Center logo</title><path class="cls-1" d="M14.31,97c-1.11,0-3-.12-4.11-.12-1.35,0-2.67,0-4,.12v-.63c2.46,0,2.64-1.62,2.67-3.87,0-1.86.06-3.69.06-5.52,0-1.32,0-3.78,0-5.1,0-2.79-.27-4.26-2.67-4.26V77c1.38.06,3.39.12,4.47.12,1.38,0,3.3-.15,5-.15,2.67,0,4.8,1.53,4.8,4.2A4.63,4.63,0,0,1,17,85.92,5.38,5.38,0,0,1,21.81,91C21.81,95.28,18.24,97,14.31,97Zm-.42-18.87a22.7,22.7,0,0,0-2.37.18c0,2.37-.06,4.77-.06,7.14.81,0,1.41.06,2.19.06,2.94,0,4.17-.33,4.17-3.39C17.82,79.35,16.59,78.12,13.89,78.12Zm.39,8.55c-1.14,0-1.83,0-2.82.06v5c0,3,.39,4.08,3,4.08,2.88,0,4.47-1.47,4.47-4.44A4.38,4.38,0,0,0,14.28,86.67Z" transform="translate(-6.18 -2.49)"/><path class="cls-1" d="M42.09,97.14a3.8,3.8,0,0,1-3.6-1.74c-1.74-2.55-3.48-5.13-5.16-7.71-.45,0-.93.06-1.56.06a14.67,14.67,0,0,1-1.47-.09v4.08c0,2.76.12,4.62,2.73,4.62V97c-.87,0-2.94-.09-4-.09s-3.18.06-4.08.09v-.63c2.52,0,2.67-1.83,2.67-4.62,0-1.11.06-3.15.06-4.71s0-3.39,0-5c0-2.64-.12-4.44-2.67-4.44V77c.66,0,2.13.12,2.7.12,1.83,0,3-.21,4.8-.21,3.66,0,6.84,1.08,6.84,5.31a5.17,5.17,0,0,1-3.42,5c1.23,1.8,2.88,4.14,4.41,6.15,1.23,1.59,2.67,3,4.05,3h.21v.57A15.35,15.35,0,0,1,42.09,97.14Zm-10.2-19a14.12,14.12,0,0,0-1.59.09v8.31c.6.06,1.26.09,1.89.09,2.55,0,4.32-.63,4.32-3.6S35,78.09,31.89,78.09Z" transform="translate(-6.18 -2.49)"/><path class="cls-1" d="M62.13,97c-1.08-.06-2.7-.12-3.36-.12s-2.61.06-3.87.12v-.63c1.29,0,1.74-.57,1.74-1.41a14.1,14.1,0,0,0-.93-3.42c-.18-.51-.39-1-.57-1.53H48.87c-.3.81-.6,1.59-.87,2.4a11.72,11.72,0,0,0-.72,2.76c0,.78.48,1.2,1.53,1.2V97c-.84-.06-2-.12-2.76-.12s-2.1.06-2.94.12v-.63c.81,0,1.59-.75,2.22-2.07.54-1.14.87-2,2.37-5.85.9-2.37,1.47-3.87,2.1-5.49a58.61,58.61,0,0,0,2.1-6h1.56c.42,1.44,1.32,3.87,2,5.79l3.12,8.37c1.35,3.6,2,5.22,3.51,5.22Zm-10-15.72c-.9,2.31-1.89,5-2.76,7.29h5.34Z" transform="translate(-6.18 -2.49)"/><path class="cls-1" d="M67.47,96.9c-1,0-3.15.06-4,.09v-.63c2.16,0,2.67-1.23,2.67-4,0-1.56.06-3.75.06-5.31s0-4.2,0-5.79c0-2.55-.66-3.63-2.67-3.63V77c.9,0,3,.12,4,.12s3.15-.09,4-.12v.63c-2,0-2.67,1-2.67,3.63,0,1.59,0,4.2,0,5.79s0,3.75,0,5.31c0,2.94.57,4,2.67,4V97C70.62,97,68.49,96.9,67.47,96.9Z" transform="translate(-6.18 -2.49)"/><path class="cls-1" d="M92.64,81.6c0,1.83,0,4.08,0,5.46,0,4.23.09,5.7.09,9.93H91.26c-3.93-5.52-8.73-11-12.81-15.78,0,1.35,0,3.84,0,5.82v1.41c0,1.11,0,2.19,0,3.3.09,3.36.39,4.62,2.73,4.62V97c-.66,0-2.37-.09-3.6-.09s-2.76.06-3.39.09v-.63c2,0,2.64-1.26,2.64-4.62,0-1.68,0-3.81,0-4.71,0-1.62-.06-3.24-.06-4.86,0-3.42-.54-4.56-2.61-4.56V77c.48,0,1.68.09,2.58.09S78.6,77,79,77c1.68,2.49,8.31,10.47,12.06,14.82V87c0-1.32,0-2.73,0-5.43,0-3-.57-4-2.58-4V77c.66,0,2.31.12,3.54.12S94.77,77,95.4,77v.63C93.12,77.61,92.67,78.81,92.64,81.6Z" transform="translate(-6.18 -2.49)"/><path class="cls-1" d="M118.89,96.87c-1,0-3.15.09-4,.12v-.63c2.16,0,2.67-1.14,2.67-4.56,0-1.56,0-3.21,0-4.77l-10.26.06c0,1.56,0,3.18,0,4.74,0,2.79.18,4.53,2.67,4.53V97c-.9,0-3-.12-4-.12s-3.15.09-4.05.12v-.63c2.19,0,2.67-1.2,2.67-4.53,0-1.56,0-3.24,0-4.8V82.2c0-3.45-.42-4.59-2.67-4.59V77c.9,0,3,.12,4,.12s3.15-.09,4-.12v.63c-2.25,0-2.67,1.14-2.67,4.59,0,1.11,0,2.31,0,3.42h10.26V82.2c0-3.42-.48-4.59-2.67-4.59V77c.9,0,3,.12,4,.12s3.15-.09,4-.12v.63c-2.16,0-2.67,1.14-2.67,4.59,0,1.59,0,3.24,0,4.83s0,3.21,0,4.77c0,3,.27,4.56,2.67,4.56V97C122,97,119.91,96.87,118.89,96.87Z" transform="translate(-6.18 -2.49)"/><path class="cls-1" d="M140.4,92.52c-.24,1-.54,2.4-.72,3.06-.33,1.32-.54,1.5-2,1.5-2.43,0-4.83-.18-7.29-.18-1.38,0-2.85,0-4.23.09v-.63c1.89,0,2.37-1.11,2.43-4.47,0-1.56.06-3.3.06-4.86s0-3.18,0-4.77c0-3.69-.72-4.65-2.43-4.65V77h13.23c0,.6-.06,1.2-.06,1.8,0,1,0,1.77.06,2.52h-.81c-.36-2.28-1.35-2.88-4.95-2.88-.87,0-1.44.06-2.25.06,0,1.26-.06,2.52-.06,3.78s0,2.43,0,3.63l2.25,0c3.12,0,3.57-.54,3.75-2.28h.78c0,1,0,1.32,0,3s0,1.86,0,2.85h-.78c-.18-1.68-.78-2.28-3.72-2.28l-2.28,0v4.65c0,2.73,0,3.63,3,3.63,3.42,0,4.62-1,5.28-3.18Z" transform="translate(-6.18 -2.49)"/><path class="cls-1" d="M160.5,97c-1.08-.06-2.7-.12-3.36-.12s-2.61.06-3.87.12v-.63c1.29,0,1.74-.57,1.74-1.41a14.1,14.1,0,0,0-.93-3.42c-.18-.51-.39-1-.57-1.53h-6.27c-.3.81-.6,1.59-.87,2.4a11.72,11.72,0,0,0-.72,2.76c0,.78.48,1.2,1.53,1.2V97c-.84-.06-2-.12-2.76-.12s-2.1.06-2.94.12v-.63c.81,0,1.59-.75,2.22-2.07.54-1.14.87-2,2.37-5.85.9-2.37,1.47-3.87,2.1-5.49a58.61,58.61,0,0,0,2.1-6h1.56c.42,1.44,1.32,3.87,2,5.79L157,91.14c1.35,3.6,2,5.22,3.51,5.22Zm-10-15.72c-.9,2.31-1.89,5-2.76,7.29h5.34Z" transform="translate(-6.18 -2.49)"/><path class="cls-1" d="M176.22,92.49c-.24,1.05-.54,2.25-.72,2.91-.3,1.14-.6,1.68-1.44,1.68-1.14,0-5.49-.21-8.25-.21-1,0-3.12.09-4,.12v-.63c2.52,0,2.67-1.83,2.67-4.62,0-1.56.06-3.15.06-4.71s0-3.18,0-4.77c-.06-3.18-.24-4.65-2.67-4.65V77c1.35,0,2.73.12,4.08.12s2.73-.06,4-.12v.63c-2.67,0-2.64,1.92-2.67,4.65,0,1.59,0,3.18,0,4.77s0,3.15,0,4.71c0,3.15.6,3.78,3,3.78,3.15,0,4.53-.87,5.22-3.21Z" transform="translate(-6.18 -2.49)"/><path class="cls-1" d="M191.37,81.39c-.57-2.22-1.56-2.79-3.84-2.79h-2.22c0,1.23,0,2.43-.06,3.66,0,1.77-.06,3.75-.06,4.83,0,1.44.06,3.51.06,4.89,0,3,.36,4.38,2.64,4.38V97c-.9,0-3-.09-4-.09s-3.15.06-4.05.09v-.63c2,0,2.67-1.29,2.67-4.38,0-1.56.06-3.39.06-5,0-1.41-.06-3.24-.06-4.77,0-1.23,0-2.43,0-3.66H180.3c-2.37,0-3.36.51-4,2.79l-.84-.15c.27-1.53.51-3.09.63-4.56,1.26.33,1.86.39,5,.39h5.4c3.18,0,3.81-.06,5.07-.39a43.92,43.92,0,0,0,.63,4.56Z" transform="translate(-6.18 -2.49)"/><path class="cls-1" d="M211.05,96.87c-1,0-3.15.09-4.05.12v-.63c2.16,0,2.67-1.14,2.67-4.56,0-1.56,0-3.21,0-4.77l-10.26.06c0,1.56,0,3.18,0,4.74,0,2.79.18,4.53,2.67,4.53V97c-.9,0-3-.12-4-.12S194.94,97,194,97v-.63c2.19,0,2.67-1.2,2.67-4.53,0-1.56,0-3.24,0-4.8V82.2c0-3.45-.42-4.59-2.67-4.59V77c.9,0,3,.12,4,.12s3.15-.09,4-.12v.63c-2.25,0-2.67,1.14-2.67,4.59,0,1.11,0,2.31,0,3.42H209.7V82.2c0-3.42-.48-4.59-2.67-4.59V77c.9,0,3,.12,4,.12s3.15-.09,4-.12v.63c-2.16,0-2.67,1.14-2.67,4.59,0,1.59,0,3.24,0,4.83s0,3.21,0,4.77c0,3,.27,4.56,2.67,4.56V97C214.2,97,212.07,96.87,211.05,96.87Z" transform="translate(-6.18 -2.49)"/><path class="cls-1" d="M239.13,96.33a14.52,14.52,0,0,1-5.46,1.08c-5.31,0-10.68-3.18-10.68-10.5,0-5.82,3.78-10.35,10.8-10.35a19.1,19.1,0,0,1,5.61.9c0,.63,0,1.26,0,1.86v.21c0,.6,0,1.29,0,1.8h-.84c-.33-2.16-1.92-3.27-4.83-3.27-4.77,0-7.68,3-7.68,7.92,0,5.76,3.24,9.93,7.77,9.93a5,5,0,0,0,5.07-3.63l.81.18C239.43,93.93,239.31,95.07,239.13,96.33Z" transform="translate(-6.18 -2.49)"/><path class="cls-1" d="M257.46,92.52c-.24,1-.54,2.4-.72,3.06-.33,1.32-.54,1.5-2,1.5-2.43,0-4.83-.18-7.29-.18-1.38,0-2.85,0-4.23.09v-.63c1.89,0,2.37-1.11,2.43-4.47,0-1.56.06-3.3.06-4.86s0-3.18,0-4.77c0-3.69-.72-4.65-2.43-4.65V77H256.5c0,.6-.06,1.2-.06,1.8,0,1,0,1.77.06,2.52h-.81c-.36-2.28-1.35-2.88-4.95-2.88-.87,0-1.44.06-2.25.06,0,1.26-.06,2.52-.06,3.78s0,2.43,0,3.63l2.25,0c3.12,0,3.57-.54,3.75-2.28h.78c0,1,0,1.32,0,3s0,1.86,0,2.85h-.78c-.18-1.68-.78-2.28-3.72-2.28l-2.28,0v4.65c0,2.73,0,3.63,3,3.63,3.42,0,4.62-1,5.28-3.18Z" transform="translate(-6.18 -2.49)"/><path class="cls-1" d="M278.58,81.6c0,1.83,0,4.08,0,5.46,0,4.23.09,5.7.09,9.93H277.2c-3.93-5.52-8.73-11-12.81-15.78,0,1.35,0,3.84,0,5.82v1.41c0,1.11,0,2.19,0,3.3.09,3.36.39,4.62,2.73,4.62V97c-.66,0-2.37-.09-3.6-.09s-2.76.06-3.39.09v-.63c2,0,2.64-1.26,2.64-4.62,0-1.68,0-3.81,0-4.71,0-1.62-.06-3.24-.06-4.86,0-3.42-.54-4.56-2.61-4.56V77c.48,0,1.68.09,2.58.09s1.83-.06,2.22-.09c1.68,2.49,8.31,10.47,12.06,14.82V87c0-1.32,0-2.73,0-5.43,0-3-.57-4-2.58-4V77c.66,0,2.31.12,3.54.12s2.79-.09,3.42-.12v.63C279.06,77.61,278.61,78.81,278.58,81.6Z" transform="translate(-6.18 -2.49)"/><path class="cls-1" d="M297.93,81.39c-.57-2.22-1.56-2.79-3.84-2.79h-2.22c0,1.23,0,2.43-.06,3.66,0,1.77-.06,3.75-.06,4.83,0,1.44.06,3.51.06,4.89,0,3,.36,4.38,2.64,4.38V97c-.9,0-3-.09-4.05-.09s-3.15.06-4,.09v-.63c2,0,2.67-1.29,2.67-4.38,0-1.56.06-3.39.06-5,0-1.41-.06-3.24-.06-4.77,0-1.23,0-2.43,0-3.66h-2.13c-2.37,0-3.36.51-4,2.79l-.84-.15c.27-1.53.51-3.09.63-4.56,1.26.33,1.86.39,5,.39h5.4c3.18,0,3.81-.06,5.07-.39a43.92,43.92,0,0,0,.63,4.56Z" transform="translate(-6.18 -2.49)"/><path class="cls-1" d="M315.06,92.52c-.24,1-.54,2.4-.72,3.06-.33,1.32-.54,1.5-2,1.5-2.43,0-4.83-.18-7.29-.18-1.38,0-2.85,0-4.23.09v-.63c1.89,0,2.37-1.11,2.43-4.47,0-1.56.06-3.3.06-4.86s0-3.18,0-4.77c0-3.69-.72-4.65-2.43-4.65V77H314.1c0,.6-.06,1.2-.06,1.8,0,1,0,1.77.06,2.52h-.81c-.36-2.28-1.35-2.88-5-2.88-.87,0-1.44.06-2.25.06,0,1.26-.06,2.52-.06,3.78s0,2.43,0,3.63l2.25,0c3.12,0,3.57-.54,3.75-2.28h.78c0,1,0,1.32,0,3s0,1.86,0,2.85H312c-.18-1.68-.78-2.28-3.72-2.28l-2.28,0v4.65c0,2.73,0,3.63,3,3.63,3.42,0,4.62-1,5.28-3.18Z" transform="translate(-6.18 -2.49)"/><path class="cls-1" d="M335.22,97.14a3.8,3.8,0,0,1-3.6-1.74c-1.74-2.55-3.48-5.13-5.16-7.71-.45,0-.93.06-1.56.06a14.67,14.67,0,0,1-1.47-.09v4.08c0,2.76.12,4.62,2.73,4.62V97c-.87,0-2.94-.09-4-.09S319,97,318.06,97v-.63c2.52,0,2.67-1.83,2.67-4.62,0-1.11.06-3.15.06-4.71s0-3.39,0-5c0-2.64-.12-4.44-2.67-4.44V77c.66,0,2.13.12,2.7.12,1.83,0,3-.21,4.8-.21,3.66,0,6.84,1.08,6.84,5.31a5.17,5.17,0,0,1-3.42,5c1.23,1.8,2.88,4.14,4.41,6.15,1.23,1.59,2.67,3,4.05,3h.21v.57A15.35,15.35,0,0,1,335.22,97.14Zm-10.2-19a14.12,14.12,0,0,0-1.59.09v8.31c.6.06,1.26.09,1.89.09,2.55,0,4.32-.63,4.32-3.6S328.14,78.09,325,78.09Z" transform="translate(-6.18 -2.49)"/><path class="cls-1" d="M47.88,49.08c-.7,3.06-1.57,7-2.1,8.93-1,3.85-1.57,4.37-5.78,4.37-7.09,0-14.1-.52-21.28-.52-4,0-8.31,0-12.34.26V60.28c5.51,0,6.92-3.23,7.09-13,.09-4.56.17-9.64.17-14.19s-.08-9.28-.08-13.92c0-10.77-2.11-13.58-7.09-13.58V3.72H45.08C45,5.47,44.91,7.22,44.91,9c0,2.89.08,5.17.17,7.35H42.72c-1-6.65-3.95-8.4-14.45-8.4-2.54,0-4.2.17-6.57.17,0,3.68-.17,7.36-.17,11,0,3.5-.09,7.09-.09,10.6,1.75,0,4.82.08,6.57.08,9.1,0,10.41-1.57,10.94-6.66h2.28c-.09,3-.09,3.86-.09,8.76,0,4.64,0,5.43.09,8.32H39c-.53-4.9-2.28-6.65-10.86-6.65-1.92,0-4.73.08-6.65.08V47.24c0,8,.09,10.59,8.67,10.59,10,0,13.48-3,15.41-9.28Z" transform="translate(-6.18 -2.49)"/><path class="cls-1" d="M114.87,61.77c-2.81,0-8.24.26-10.51.35V60.28c6.13,0,6.48-5.25,6.48-13.48,0-3.59-.44-22.68-.79-35.47-7.27,16-14.36,34.86-20.23,50.79H86.58C82.9,52.58,72.22,25.61,65.3,11.24c-.35,18.49-.61,31.53-.61,35.56,0,7.71.26,13.48,6.48,13.48v1.84c-2-.09-6.74-.35-9.28-.35s-7.36.26-9.37.35V60.28c6.65,0,7.44-5.52,7.44-13.48,0-3.16.7-23.38.7-29.07,0-7.71-1-12.18-6.56-12.18V3.72c1.4.08,4.9.35,8,.35S69,3.8,70.38,3.72C76.6,19,82.9,34.8,89.56,49.86c6.13-14.62,12.61-30.73,18.13-46.14,1.48.08,5.16.35,8.31.35s6.66-.27,8.06-.35V5.55c-5.43,0-6.22,3.51-6.22,11,0,2.45.44,21.37.7,30.21.18,8,.79,13.48,7.19,13.48v1.84C123.36,62,117.76,61.77,114.87,61.77Z" transform="translate(-6.18 -2.49)"/><path class="cls-1" d="M157.94,63.35c-17.69,0-29.6-12.17-29.6-29.86,0-18.13,12.79-31,30.74-31,17.69,0,29.95,12.08,29.95,29.6C189,50,175.89,63.35,157.94,63.35Zm0-56.48c-12.34,0-20.84,9.37-20.84,23,0,16.29,9.63,29.07,22.15,29.07,12.26,0,20.93-10,20.93-23.73C180.18,19.22,170.46,6.87,157.94,6.87Z" transform="translate(-6.18 -2.49)"/><path class="cls-1" d="M241.38,62.56c-4.55,0-7.61-1-10.5-5.08-5.08-7.44-10.16-15-15.07-22.5-1.31.09-2.71.17-4.55.17a41.37,41.37,0,0,1-4.29-.26V46.8c0,8.05.35,13.48,8,13.48v1.84c-2.54-.09-8.59-.26-11.73-.26s-9.29.17-11.91.26V60.28c7.35,0,7.79-5.34,7.79-13.48,0-3.24.18-9.2.18-13.75s-.09-9.9-.09-14.53c0-7.71-.35-13-7.8-13V3.72c1.93.08,6.22.35,7.89.35,5.33,0,8.66-.62,14-.62,10.69,0,20,3.15,20,15.5,0,7.27-4.64,13.05-10,14.63,3.59,5.25,8.41,12.08,12.87,18,3.59,4.64,7.79,8.75,11.82,8.75h.61V62A44.73,44.73,0,0,1,241.38,62.56ZM211.61,7a40,40,0,0,0-4.64.26V31.48c1.76.17,3.68.26,5.52.26,7.44,0,12.61-1.84,12.61-10.51C225.1,12.3,220.72,7,211.61,7Z" transform="translate(-6.18 -2.49)"/><path class="cls-1" d="M281.22,14.75C277.9,20.35,271,32,269.14,35.41c0,3.77.09,7.62.09,11.39,0,8.05.26,13.48,7.79,13.48v1.84C274.4,62,268.18,62,265.2,62c-3.15,0-9.28.08-11.82.17V60.28c7.35,0,7.7-5.07,7.7-13.48,0-3.77.18-7.53.18-11.3-4.29-7.79-9.11-16.28-13.93-23.73-3.06-4.73-4.64-6.22-7.09-6.22V3.72c1.58.08,5.61.35,9.28.35,3.16,0,7.54-.27,9.29-.35V5.55c-2.46,0-3.24.88-3.24,2.37,0,1.22.78,3.06,3,7.09,2.72,5.17,5.43,9.72,8.59,15,3.23-5.52,6.39-10.6,9.19-15.94,2.1-3.94,2.63-5.26,2.63-6.22,0-1.4-1-2.28-3.6-2.28V3.72c1.14.08,4.56.35,7.36.35s6.39-.27,7.45-.35V5.55C287.35,5.55,284.81,8.71,281.22,14.75Z" transform="translate(-6.18 -2.49)"/></svg>