<svg id="Layer_1" data-name="Layer 1" xmlns="http://www.w3.org/2000/svg" viewBox="0 0 64 54"><defs><style>.cls-1{fill:#95989a;}</style></defs><title>calendar</title><path class="cls-1" d="M53,5H45V9H19V5H11V9H0V59H64V9H53ZM47,7h4v6H47ZM13,7h4v6H13ZM2,57V19H62V57ZM62,11v6H2V11h9v4h8V11H45v4h8V11Z" transform="translate(0 -5)"/><path class="cls-1" d="M9,35H21V23H9Zm2-10h8v8H11Z" transform="translate(0 -5)"/><path class="cls-1" d="M9,53H21V41H9Zm2-10h8v8H11Z" transform="translate(0 -5)"/><path class="cls-1" d="M43,35H55V23H43Zm2-10h8v8H45Z" transform="translate(0 -5)"/><path class="cls-1" d="M43,53H55V41H43Zm2-10h8v8H45Z" transform="translate(0 -5)"/><path class="cls-1" d="M26,35H38V23H26Zm2-10h8v8H28Z" transform="translate(0 -5)"/><path class="cls-1" d="M26,53H38V41H26Zm2-10h8v8H28Z" transform="translate(0 -5)"/></svg>