<svg xmlns="http://www.w3.org/2000/svg" viewBox="607.373 122.795 51.086 55.81"><defs><style>.a{fill:#fff;}</style></defs><g transform="translate(607.399 122.795)"><g transform="translate(-0.026)"><path class="a" d="M25.211,54.062c-26.282-12.173-23.161-39.33-23.1-52l46.509.062C48.559,14.8,51.493,41.951,25.211,54.062ZM2.05,0l-2,2.123c0,1.5-.062,3.434-.062,4.37C-.2,21.413.8,44.573,25.086,55.81c12.86-5.931,22.536-16.169,25.1-32.025,1.5-9.177.624-17.917.624-23.785Z" transform="translate(0.026)"/></g><g transform="translate(10.847 31.776)"><path class="a" d="M21.829,53.4c-1.873,2-3.683,3.933-4.308,4.62-.125.125-.187.312-.062.375.125.125.312.312.375.312.125,0,.187.062.375-.125.062-.062,2.123-2.06,4.557-4.37a1.924,1.924,0,0,1-.437-.312A3.371,3.371,0,0,1,21.829,53.4Z" transform="translate(-17.391 -51.839)"/><g transform="translate(4.389)"><path class="a" d="M25.719,51.9a9.69,9.69,0,0,0,1.249.874l-.437.437c-.187.187-.749-.125-1.311-.624s-.936-1.061-.749-1.249l.5-.437A2.352,2.352,0,0,0,25.719,51.9Z" transform="translate(-24.422 -50.9)"/></g><g transform="translate(25.663 4.932)"><g transform="translate(0.375 0.437)"><path class="a" d="M59.974,60.249a1.16,1.16,0,0,0,.375-.749l.437.187c.125.125,0,.624-.375,1s-.936.5-1.061.375l-.25-.437C59.162,60.686,59.6,60.686,59.974,60.249Z" transform="translate(-59.1 -59.5)"/></g><path class="a" d="M59.124,59.3a1.2,1.2,0,0,0,.312-.5l.25.187c.062.125,0,.375-.25.687-.312.312-.687.375-.749.25l-.187-.312C58.5,59.674,58.875,59.549,59.124,59.3Z" transform="translate(-58.5 -58.8)"/></g></g><g transform="translate(31.442 10.675)"><path class="a" d="M57.385,22.406l-.5.437c-.687.25-2.185-.936-3.434-2-.812-.687-2.435-2.5-2-3.246l.187-.187c-.125-.062-.25-.187-.375-.187a1.176,1.176,0,0,0-.5-.125c-.187,0-.375.125-.375.25A2,2,0,0,0,50.83,18.6a12.632,12.632,0,0,0,3.309,3.621,11.068,11.068,0,0,0,2.747,1.5.946.946,0,0,0,.812-.062c.187-.187,0-.562-.187-.936A1.055,1.055,0,0,0,57.385,22.406Z" transform="translate(-50.381 -17.1)"/></g><path class="a" d="M60,18.1" transform="translate(-22.553 -6.801)"/><path class="a" d="M58.4,17.4" transform="translate(-21.952 -6.538)"/><path class="a" d="M23.1,13.475v.5a14.59,14.59,0,0,0,2.809,7.491c2.06,2.56,8.178,9.864,9.177,11.05.936,1.061,6.929,8.116,7.679,9.052,0,.062.062.062.062.125a.672.672,0,0,1-.25.312,1.766,1.766,0,0,1-.375.187L42.019,42c-.25-.312-10.675-10.738-11.674-11.674-1-1-6.368-6.18-8.553-7.554-1.935-1.249-2.809-1.935-4.869-2.06,0,0-1.5-.062-1.623-.125a.193.193,0,0,1,.062-.125,17.869,17.869,0,0,0,4.557-3.059,13.346,13.346,0,0,0,3.059-3.871C22.979,13.413,23.1,13.413,23.1,13.475Zm1.436,8.8c-2.185-2.123-3-2.622-3.933-3.059a2.178,2.178,0,0,0-1.186-.312,4.715,4.715,0,0,0-1.436.812c-.312.25-.25.375-.125.437a11.819,11.819,0,0,1,2.247.874c1.748.936,5.057,3.246,12.236,10.613,3.621,3.746,9.364,9.614,9.364,9.614l.125-.125s-8.365-9.364-14.858-16.294C26.1,23.838,25.288,23.027,24.539,22.278Z" transform="translate(-5.758 -5.048)"/><path class="a" d="M61.3,25.5" transform="translate(-23.042 -9.581)"/><path class="a" d="M17.176,16.78a10.634,10.634,0,0,1-3.184,1.935c-.687.25-1.623-.062-.936-1.311a9.64,9.64,0,0,1,.874-1.373,19.034,19.034,0,0,1,5.681-4.869,3.922,3.922,0,0,1,1.561-.562c.562.062.562.5.5.936C21.421,12.41,19.86,14.533,17.176,16.78Zm.687-1.186a14.837,14.837,0,0,0,1.81-1.935,15.579,15.579,0,0,0,1.186-1.686,1.232,1.232,0,0,0,.125-.437c0-.125-.187-.187-.187-.25a8.735,8.735,0,0,0-2.809,1.561c-.125.062-.25.5-.375.749-.062.25.562.874.125,1.935C17.675,15.594,17.8,15.594,17.862,15.594Z" transform="translate(-4.825 -3.983)"/><path class="a" d="M27.7,13.9" transform="translate(-10.417 -5.223)"/><g transform="translate(17.22 17.168)"><path class="a" d="M34.779,41.4c-.437.437-7.179,6.929-7.179,6.929a4.6,4.6,0,0,0,.375.312s6.18-5.993,6.68-6.43a3.126,3.126,0,0,1,.5-.437Z" transform="translate(-27.6 -32.723)"/><path class="a" d="M53.4,28.187h.312c.125,0,.25,0,.25-.062.062-.062.125-.125,0-.125a4.716,4.716,0,0,1-1.561-.5c-.375.125-1.061.312-1.81.624-1,.437-3.121,1.686-7.491,5.743l.312.375a48.859,48.859,0,0,1,4.62-3.871,13.886,13.886,0,0,1,4.308-2.06A5.5,5.5,0,0,1,53.4,28.187Z" transform="translate(-33.424 -27.5)"/></g><g transform="translate(16.346 11.799)"><path class="a" d="M48.229,21.772a6.391,6.391,0,0,1-1.748-2.809V18.9h-.062v.062a7.874,7.874,0,0,1-.562,3.121,13.854,13.854,0,0,1-2.372,3.808c-.624.749-1.686,1.935-2.684,3.121l.687.812.562-.562a50.567,50.567,0,0,1,7.3-6.555A5.6,5.6,0,0,1,48.229,21.772Z" transform="translate(-31.686 -18.9)"/><path class="a" d="M32.88,39.4c-1.436,1.561-2.809,3.184-3.246,3.621C29.259,43.4,26.2,46.7,26.2,46.7a1.078,1.078,0,0,0,.187.25l.25.25s6.492-6.617,6.929-7.179Z" transform="translate(-26.2 -26.602)"/></g><path class="a" d="M54.085,16.4v-.125a.945.945,0,0,0-.749.062c-.437.437.5,2,2.123,3.5,1.561,1.436,3.184,2.31,3.621,1.81.187-.187.125-.562-.125-1C56.707,20.895,54.085,17.836,54.085,16.4Z" transform="translate(-20.009 -6.1)"/><path class="a" d="M61.679,13.962c-.25.25-.624.874-.812,1.061.25-.187.375-.749.125-2.123a7.261,7.261,0,0,0-.437-1.623c-.062-.187-.187-.125-.312,0a3.051,3.051,0,0,0-.437.687c0,.125,0,0-.437-1.373a4.267,4.267,0,0,1-.375-1.81V8.344c0-.125-.062-.125-.312,0a5.268,5.268,0,0,0-1.873,2.185c-.312.749-.312,1.311-.375,1-.062-.749-.062-.687-.125-.687a2.7,2.7,0,0,0-1.81,2.684c0,1.623,3,4.994,5.494,4.245,0,0,1.873-.375,1.873-2.06C61.866,13.9,61.679,13.962,61.679,13.962Zm-.624,2.123a1.775,1.775,0,0,1-.936.812,2.963,2.963,0,0,1-1.748.187,6.072,6.072,0,0,1-2.934-2.435c-1.436-2.31.5-3.309.624-3.309A3.211,3.211,0,0,0,56,12.589a5.7,5.7,0,0,0,.5,1.061.946.946,0,0,1-.187,1c-.062.062.125.062.125,0a.218.218,0,0,1,.125-.062A.91.91,0,0,0,57,13.775a2.814,2.814,0,0,1-.062-2.622,5.9,5.9,0,0,1,1.311-1.81c.125-.062.25-.187.25-.125,0,.125.187.749.25,1.186a7.73,7.73,0,0,1,.5,2.5c-.125,1.186-2.06,2.56-2.372,2.622a.915.915,0,0,0-.25.125c-.062.062.062.062.062.062a4.513,4.513,0,0,0,1.623-.624,4.441,4.441,0,0,0,1.311-1.373,8.194,8.194,0,0,0,.562-1.623c.062-.125.125-.125.125-.062a6.634,6.634,0,0,1,.187.874,8.114,8.114,0,0,1,.125,1.061,1.844,1.844,0,0,1-.812,1.748,1.96,1.96,0,0,1-1,.375h-.125c-.062,0-.125,0,0,.062a.193.193,0,0,1,.125.062,1.808,1.808,0,0,0,1.373-.125,4.833,4.833,0,0,0,.749-.624c.125-.125.312-.375.312-.25A1.948,1.948,0,0,1,61.055,16.085Z" transform="translate(-20.487 -3.1)"/></g></svg>