<?xml version="1.0" encoding="utf-8"?>
<!-- Generator: Adobe Illustrator 20.1.0, SVG Export Plug-In . SVG Version: 6.00 Build 0)  -->
<svg version="1.1" id="Layer_1" xmlns="http://www.w3.org/2000/svg" xmlns:xlink="http://www.w3.org/1999/xlink" x="0px" y="0px"
	 viewBox="0 0 64 64" style="enable-background:new 0 0 64 64;" xml:space="preserve">
<style type="text/css">
	.st0{fill:#95989A;}
</style>
<g>
	<rect x="16" y="23" class="st0" width="22" height="2"/>
	<rect x="16" y="33" class="st0" width="22" height="2"/>
	<rect x="16" y="43" class="st0" width="22" height="2"/>
	<rect x="16" y="53" class="st0" width="22" height="2"/>
	<rect x="8" y="23" class="st0" width="4" height="2"/>
	<rect x="8" y="33" class="st0" width="4" height="2"/>
	<rect x="8" y="43" class="st0" width="4" height="2"/>
	<rect x="8" y="53" class="st0" width="4" height="2"/>
	<path class="st0" d="M46,7H32.5l-0.8-3H28V0H18v4h-3.8l-0.8,3H0v57h46V7z M15.8,6H20V2h6v4h4.2l1.5,6H14.3L15.8,6z M44,62H2V9h11
		l-1.2,5h22.6L33,9h11V62z"/>
	<path class="st0" d="M64,2H54v4h-4v11h2V8h2v45.2l5,10l5-10V2z M62,52.8l-3,6l-3-6V4h6V52.8z"/>
</g>
</svg>
