<svg id="Layer_1" data-name="Layer 1" xmlns="http://www.w3.org/2000/svg" viewBox="0 0 64 56.16"><defs><style>.cls-1{fill:#95989a;}</style></defs><title>heart_default</title><path class="cls-1" d="M48,4c-7.36,0-13.64,4.15-16,9.93C29.64,8.15,23.36,4,16,4,6,4,0,12.64,0,21c0,8.59,5.33,17.75,15.83,27.24A106.54,106.54,0,0,0,31.5,59.87l.5.29.5-.3A105.16,105.16,0,0,0,48.17,48.24C58.67,38.76,64,29.59,64,21,64,12.64,58,4,48,4ZM32,57.83C28,55.41,2,38.83,2,21,2,13.63,7.24,6,16,6c7.21,0,15,5,15,13h2c0-8,7.79-13,15-13,8.76,0,14,7.63,14,15C62,38.82,36,55.41,32,57.83Z" transform="translate(0 -4)"/></svg>