<?xml version="1.0" encoding="utf-8"?>
<!-- Generator: Adobe Illustrator 22.0.1, SVG Export Plug-In . SVG Version: 6.00 Build 0)  -->
<svg version="1.1" id="Layer_1" xmlns="http://www.w3.org/2000/svg" xmlns:xlink="http://www.w3.org/1999/xlink" x="0px" y="0px"
	 viewBox="0 0 64 64" style="enable-background:new 0 0 64 64;" xml:space="preserve">
<style type="text/css">
	.st0{fill:#95989A;}
</style>
<g>
	<path class="st0" d="M49,17c0-9.4-7.6-17-17-17S15,7.6,15,17v15H7v32h50V32h-8V17z M17,17c0-8.3,6.7-15,15-15s15,6.7,15,15v15H17
		V17z M55,62H9V34h46V62z"/>
	<path class="st0" d="M31,51.9V55h2v-3.1c2.3-0.5,4-2.5,4-4.9c0-2.8-2.2-5-5-5s-5,2.2-5,5C27,49.4,28.7,51.4,31,51.9z M32,44
		c1.7,0,3,1.3,3,3s-1.3,3-3,3s-3-1.3-3-3S30.3,44,32,44z"/>
</g>
</svg>
