<?xml version="1.0" encoding="utf-8"?>
<!-- Generator: Adobe Illustrator 20.1.0, SVG Export Plug-In . SVG Version: 6.00 Build 0)  -->
<svg version="1.1" id="Layer_1" xmlns="http://www.w3.org/2000/svg" xmlns:xlink="http://www.w3.org/1999/xlink" x="0px" y="0px"
	 viewBox="0 0 64 64" style="enable-background:new 0 0 64 64;" xml:space="preserve">
<style type="text/css">
	.st0{fill:#95989A;}
</style>
<g>
	<path class="st0" d="M37,19c0-2.8-2.2-5-5-5s-5,2.2-5,5c0,2.8,2.2,5,5,5S37,21.8,37,19z M29,19c0-1.7,1.3-3,3-3s3,1.3,3,3
		c0,1.7-1.3,3-3,3S29,20.7,29,19z"/>
	<path class="st0" d="M32,48.6l0.8-0.9C33.3,47,46,31.3,46,21c0-8.3-6.3-15-14-15c-7.7,0-14,6.7-14,15C18,31.3,30.7,47,31.2,47.6
		L32,48.6z M32,8c6.6,0,12,5.8,12,13c0,8.2-9.2,20.8-12,24.4C29.2,41.8,20,29.2,20,21C20,13.8,25.4,8,32,8z"/>
	<polygon class="st0" points="43,36 43,38 51.4,38 61.3,56 2.7,56 12.6,38 21,38 21,36 11.4,36 -0.7,58 64.7,58 52.6,36 	"/>
</g>
</svg>
