<?xml version="1.0" encoding="utf-8"?>
<!-- Generator: Adobe Illustrator 22.0.1, SVG Export Plug-In . SVG Version: 6.00 Build 0)  -->
<svg version="1.1" id="Layer_1" xmlns="http://www.w3.org/2000/svg" xmlns:xlink="http://www.w3.org/1999/xlink" x="0px" y="0px"
	 viewBox="0 0 64 64" style="enable-background:new 0 0 64 64;" xml:space="preserve">
<style type="text/css">
	.st0{fill:#95989A;}
</style>
<g>
	<path class="st0" d="M53,27h-1v-5c0-0.2-0.2-17-20-17S12,21.8,12,22v5h-1C4.9,27,0,31.9,0,38s4.9,11,11,11h3V31v-4v-5
		c0-0.6,0.2-15,18-15c17.7,0,18,14.4,18,15v5v1v20v1v3.3l-13,5.2V54H27v6h9.2L52,53.7V49h1c6.1,0,11-4.9,11-11S59.1,27,53,27z
		 M12,47h-1c-5,0-9-4-9-9s4-9,9-9h1v2V47z M29,58v-2h6v2H29z M53,47h-1V29h1c5,0,9,4,9,9S58,47,53,47z"/>
</g>
</svg>
