<svg xmlns="http://www.w3.org/2000/svg" viewBox="-949 3678 2045 118"><defs><style>.a,.e,.g{fill:#fff;}.a{stroke:#b3b3b3;}.a,.d,.e{stroke-width:2px;}.b,.d{fill:#275a95;}.c,.l{fill:none;}.c{stroke:#95989a;}.d,.e{stroke:#afafaf;}.f,.h,.i,.j{fill:#95989a;}.f{font-size:13px;}.f,.g,.h,.i,.j{font-family:HelveticaNeue, Helvetica Neue;}.g,.h{font-size:20px;}.i,.j{font-size:10px;}.i{opacity:0.1;}.k{stroke:none;}</style></defs><g class="a" transform="translate(-903 3752)"><rect class="k" width="1999" height="13"/><rect class="l" x="1" y="1" width="1997" height="11"/></g><path class="b" d="M430.5-494l5.978,4.165L430.5-485h-34.99l5.859-4.835L395.511-494Z" transform="translate(-1317 4248)"/><path class="b" d="M430.5-494l5.978,4.165L430.5-485h-34.99l5.859-4.835L395.511-494Z" transform="translate(-1278 4248)"/><path class="b" d="M430.5-494l5.978,4.165L430.5-485h-34.99l5.859-4.835L395.511-494Z" transform="translate(-1240 4248)"/><path class="b" d="M430.5-494l5.978,4.165L430.5-485h-31.66l2.528-4.835L396.859-494Z" transform="translate(-1198 4248)"/><path class="b" d="M430.5-494l5.978,4.165L430.5-485h-34.99l5.859-4.835L395.511-494Z" transform="translate(-1160 4248)"/><path class="b" d="M430.5-494l5.978,4.165L430.5-485h-34.99l5.859-4.835L395.511-494Z" transform="translate(-1121 4248)"/><path class="b" d="M430.5-494l5.978,4.165L430.5-485h-34.99l5.859-4.835L395.511-494Z" transform="translate(-1083 4248)"/><g class="c" transform="translate(-417 3693)"><rect class="k" width="151" height="103" rx="8"/><rect class="l" x="0.5" y="0.5" width="150" height="102" rx="7.5"/></g><g class="d" transform="translate(-928 3740)"><circle class="k" cx="18.5" cy="18.5" r="18.5"/><circle class="l" cx="18.5" cy="18.5" r="17.5"/></g><g class="d" transform="translate(-832 3740)"><circle class="k" cx="18.5" cy="18.5" r="18.5"/><circle class="l" cx="18.5" cy="18.5" r="17.5"/></g><g class="e" transform="translate(-477 3740)"><circle class="k" cx="18.5" cy="18.5" r="18.5"/><circle class="l" cx="18.5" cy="18.5" r="17.5"/></g><g class="e" transform="translate(-399 3741)"><circle class="k" cx="18.5" cy="18.5" r="18.5"/><circle class="l" cx="18.5" cy="18.5" r="17.5"/></g><g class="e" transform="translate(-321 3741)"><circle class="k" cx="18.5" cy="18.5" r="18.5"/><circle class="l" cx="18.5" cy="18.5" r="17.5"/></g><g class="e" transform="translate(-142 3741)"><circle class="k" cx="18.5" cy="18.5" r="18.5"/><circle class="l" cx="18.5" cy="18.5" r="17.5"/></g><g class="e" transform="translate(-67 3741)"><circle class="k" cx="18.5" cy="18.5" r="18.5"/><circle class="l" cx="18.5" cy="18.5" r="17.5"/></g><g class="e" transform="translate(68 3741)"><circle class="k" cx="18.5" cy="18.5" r="18.5"/><circle class="l" cx="18.5" cy="18.5" r="17.5"/></g><g class="e" transform="translate(557 3741)"><circle class="k" cx="18.5" cy="18.5" r="18.5"/><circle class="l" cx="18.5" cy="18.5" r="17.5"/></g><g class="e" transform="translate(208 3739)"><circle class="k" cx="18.5" cy="18.5" r="18.5"/><circle class="l" cx="18.5" cy="18.5" r="17.5"/></g><g class="e" transform="translate(780 3741)"><circle class="k" cx="18.5" cy="18.5" r="18.5"/><circle class="l" cx="18.5" cy="18.5" r="17.5"/></g><g class="e" transform="translate(343 3741)"><circle class="k" cx="18.5" cy="18.5" r="18.5"/><circle class="l" cx="18.5" cy="18.5" r="17.5"/></g><g class="e" transform="translate(1040 3741)"><circle class="k" cx="18.5" cy="18.5" r="18.5"/><circle class="l" cx="18.5" cy="18.5" r="17.5"/></g><text class="f" transform="translate(-909 3714)"><tspan x="-39.728" y="0">Pre screening</tspan><tspan x="-14.931" y="15">Day1</tspan></text><text class="f" transform="translate(-814 3714)"><tspan x="-39.728" y="0">Pre screening</tspan><tspan x="-14.931" y="15">Day2</tspan></text><text class="f" transform="translate(-645 3714)"><tspan x="-30.212" y="0">Meeting w</tspan><tspan x="-24.375" y="15">Surgeon</tspan></text><text class="f" transform="translate(-458 3714)"><tspan x="-21.431" y="0">Pre-OP</tspan><tspan x="-28.775" y="15">education</tspan></text><text class="f" transform="translate(-380 3714)"><tspan x="-13.241" y="0">DBS</tspan><tspan x="-21.437" y="15">implant</tspan></text><text class="f" transform="translate(-302 3722)"><tspan x="-29.068" y="0">Discharge</tspan></text><text class="f" transform="translate(-123 3715)"><tspan x="-20.462" y="0">Wound</tspan><tspan x="-17.459" y="15">check</tspan></text><text class="f" transform="translate(-48 3715)"><tspan x="-13.241" y="0">DBS</tspan><tspan x="-38.896" y="15">programming</tspan></text><text class="f" transform="translate(87 3715)"><tspan x="-13.241" y="0">Post</tspan><tspan x="-17.459" y="15">Visit 1</tspan></text><text class="f" transform="translate(576 3715)"><tspan x="-13.241" y="0">Post</tspan><tspan x="-17.459" y="15">Visit 4</tspan></text><text class="f" transform="translate(227 3713)"><tspan x="-13.241" y="0">Post</tspan><tspan x="-17.459" y="15">Visit 2</tspan></text><text class="f" transform="translate(799 3715)"><tspan x="-13.241" y="0">Post</tspan><tspan x="-17.459" y="15">Visit 2</tspan></text><text class="f" transform="translate(362 3715)"><tspan x="-13.241" y="0">Post</tspan><tspan x="-17.459" y="15">Visit 3</tspan></text><text class="f" transform="translate(1059 3715)"><tspan x="-13.241" y="0">Post</tspan><tspan x="-17.459" y="15">Visit 3</tspan></text><text class="g" transform="translate(-915 3765)"><tspan x="0" y="0">1</tspan></text><text class="g" transform="translate(-813 3765)"><tspan x="-5.56" y="0">2</tspan></text><text class="h" transform="translate(-458 3765)"><tspan x="-5.56" y="0">4</tspan></text><text class="h" transform="translate(-380 3765)"><tspan x="-5.56" y="0">5</tspan></text><text class="h" transform="translate(-302 3765)"><tspan x="-5.56" y="0">6</tspan></text><text class="h" transform="translate(-123 3765)"><tspan x="-5.56" y="0">7</tspan></text><text class="h" transform="translate(-48 3765)"><tspan x="-5.56" y="0">8</tspan></text><text class="h" transform="translate(87 3765)"><tspan x="-5.56" y="0">9</tspan></text><text class="h" transform="translate(227 3763)"><tspan x="-11.12" y="0">10</tspan></text><text class="h" transform="translate(362 3765)"><tspan x="-11.12" y="0">11</tspan></text><text class="h" transform="translate(576 3765)"><tspan x="-11.12" y="0">12</tspan></text><text class="h" transform="translate(799 3765)"><tspan x="-11.12" y="0">13</tspan></text><text class="h" transform="translate(1058 3765)"><tspan x="-11.12" y="0">14</tspan></text><text class="f" transform="translate(-338 3690)"><tspan x="-19.624" y="0">D-DAY</tspan></text><text class="i" transform="translate(-179 3779)"><tspan x="0" y="0">2w</tspan></text><text class="j" transform="translate(-105 3779)"><tspan x="0" y="0">2w</tspan></text><text class="j" transform="translate(1 3779)"><tspan x="0" y="0">1mo</tspan></text><text class="j" transform="translate(146 3776)"><tspan x="0" y="0">1mo</tspan></text><text class="j" transform="translate(282 3776)"><tspan x="0" y="0">1mo</tspan></text><text class="j" transform="translate(442 3776)"><tspan x="0" y="0">6mo</tspan></text><text class="j" transform="translate(661 3776)"><tspan x="0" y="0">1yr</tspan></text><path class="b" d="M430.5-494l5.978,4.165L430.5-485h-31.66l2.528-4.835L396.859-494Z" transform="translate(-1031 4248)"/><path class="b" d="M430.5-494l5.978,4.165L430.5-485h-34.99l5.859-4.835L395.511-494Z" transform="translate(-993 4248)"/><path class="b" d="M430.5-494l5.978,4.165L430.5-485h-34.99l5.859-4.835L395.511-494Z" transform="translate(-955 4248)"/><g class="d" transform="translate(-664 3740)"><circle class="k" cx="18.5" cy="18.5" r="18.5"/><circle class="l" cx="18.5" cy="18.5" r="17.5"/></g><text class="g" transform="translate(-645 3765)"><tspan x="-5.56" y="0">3</tspan></text></svg>